<svg xmlns="http://www.w3.org/2000/svg" width="512" height="512" viewBox="0 0 512 512">
  <defs>
    <linearGradient id="g" x1="0" y1="0" x2="1" y2="1">
      <stop offset="0" stop-color="#ffcc38" stop-opacity="0.95"/>
      <stop offset="1" stop-color="#00e0ff" stop-opacity="0.9"/>
    </linearGradient>
    <linearGradient id="s" x1="0" y1="0" x2="1" y2="0">
      <stop offset="0" stop-color="#ffffff" stop-opacity="0.12"/>
      <stop offset="1" stop-color="#ffffff" stop-opacity="0.02"/>
    </linearGradient>
  </defs>
  <rect x="32" y="32" width="448" height="448" rx="96" fill="#0b0f14"/>
  <path d="M76 170 L436 110 L436 150 L76 210 Z" fill="url(#g)" opacity="0.30"/>
  <path d="M76 262 L436 202 L436 242 L76 302 Z" fill="url(#g)" opacity="0.22"/>
  <path d="M76 354 L436 294 L436 334 L76 394 Z" fill="url(#g)" opacity="0.16"/>
  <path d="M120 388 L392 342" stroke="url(#s)" stroke-width="8" stroke-linecap="round" opacity="0.9"/>
  <path d="M174 366 V166 H290 C348 166 388 202 388 252 C388 302 348 336 290 336 H230 V366 Z"
        fill="none" stroke="url(#g)" stroke-width="26" stroke-linejoin="round"/>
  <circle cx="392" cy="120" r="10" fill="#ffcc38" opacity="0.85"/>
  <circle cx="420" cy="136" r="6" fill="#00e0ff" opacity="0.85"/>
</svg>

